<svg xmlns="http://www.w3.org/2000/svg" xmlns:xlink="http://www.w3.org/1999/xlink" version="1.1" x="0px" y="0px" viewBox="0 0 500 500" style="enable-background:new 0 0 500 500;" xml:space="preserve"><path d="M328.3,384.6l0.3-0.8c5.2-20.5-33.9-32.7-49.9-39c-10.4-4.1-20.2-7.9-30.9-7.1c-40.5,3-34.1,24.3-78.9,24.3  c-15.3,0-25.4-1-40.3-3.1c-3.4-0.5-6.9-0.9-10.6-1.4v95.3c65.2-13.2,87.4-10.3,123.5-5.5c18.6,2.5,41.1,5.4,75.6,6.8  c6.2,0.3,125.3-62.8,128.7-87.4c0.8-5.7-2.2-12.8-8.4-13.6c-2.6-0.3-6,0.3-9.9,2.4c-29.1,15.1-53.1,29.3-87.1,36.2  c-13,24.7-59.2,6.7-85.8-4.8c-3.5-1.5-5.2-5.6-3.6-9.2c1.5-3.5,5.6-5.2,9.2-3.6c21.7,9.5,38.5,14.8,50.6,15.9  C320.5,390.8,326.3,389.1,328.3,384.6L328.3,384.6z M46.9,329.9h64.2c3.9,0,7,3.1,7,7v6.7c9.8,1.1,18.1,2.6,28.2,3.5v-91.4  c0-16.2,20.7-25.7,36-30.8c-46.3-47.9-45.7-124.1,1.4-171.2c47.7-47.7,125-47.7,172.7,0c47.1,47.1,47.8,123.3,1.5,171.2  c15.3,5,36,14.5,36,30.8v101.5l27.2-14.2c23.8-12.3,41.3,6.3,38.6,25.6c-5,36.6-136.5,99.8-143.1,99.5c-35.1-1.4-57.9-4.4-76.8-6.9  c-35.2-4.6-56.6-7.5-121.7,6v7.9c0,3.9-3.1,7-7,7H46.9c-3.9,0-7-3.1-7-7V336.9C39.9,333,43.1,329.9,46.9,329.9L46.9,329.9z   M104.1,343.9H53.9V468h50.2V343.9z M160.4,347.9c21.1,0.7,30-1.1,43-9.2c-15.5-3.2-31.9-8.2-43-15.5V347.9z M224,328  c6-2,13.3-3.6,23-4.3c12.8-0.9,23.4,2.8,34.4,7.1c28.7-0.9,54.3-4.9,72.7-11c16.1-5.3,26-11.5,26-17.3v-26.2  c-43.9,29.1-175.7,29.1-219.6,0v26.2c0,4.2,5.6,8.8,15.3,13.2C187.4,321.1,204.1,325.4,224,328L224,328z M310.8,342.7  c14.4,7,30.6,17.7,32.3,34c13-3.1,25.1-7.6,36.3-12.6l0.6-2.2v-38.9C362.9,334.4,334.3,340.2,310.8,342.7L310.8,342.7z M277.2,187.1  v6.9c0,3.9-3.1,7-7,7c-3.9,0-7-3.1-7-7v-6.9c-15.3-1.9-32.2-11.1-32.2-26.8c0-3.9,3.1-7,7-7c3.9,0,7,3.1,7,7c0,3,2.4,6,6.2,8.4  c10.2,6.4,27.8,6.4,38,0c3.8-2.4,6.1-5.4,6.1-8.4c0-9.4-13.1-11.3-26.2-13.3c-19.1-2.9-38.2-5.7-38.2-27.1  c0-15.7,16.9-24.9,32.2-26.8v-6.9c0-3.9,3.1-7,7-7c3.9,0,7,3.1,7,7v6.9c15.3,1.9,32.1,11.1,32.1,26.8c0,3.9-3.1,7-7,7  c-3.9,0-7-3.1-7-7c0-3-2.4-6-6.1-8.4c-10.3-6.4-27.8-6.4-38,0c-3.8,2.4-6.2,5.4-6.2,8.4c0,9.4,13.1,11.3,26.2,13.3  c19.1,2.9,38.2,5.7,38.2,27.1C309.3,176,292.4,185.2,277.2,187.1L277.2,187.1z M270.2,228.6c-48.9,0-88.5-39.6-88.5-88.5  c0-48.9,39.6-88.5,88.5-88.5c48.8,0,88.4,39.6,88.4,88.5C358.6,188.9,319,228.6,270.2,228.6L270.2,228.6z M217.5,192.7  c29.1,29.1,76.2,29.1,105.3,0c29.1-29.1,29.1-76.2,0-105.3c-29.1-29.1-76.2-29.1-105.3,0C188.4,116.5,188.4,163.7,217.5,192.7  L217.5,192.7z M270.2,262.2c-28.6,0-54.9-9.8-75.7-26.3c-11,2.9-20,6.5-26.2,10.5c-5.1,3.3-8,6.4-8,9.3c0,6.3,11.2,12.9,29.2,18.4  c44.2,13.4,117,13.4,161.1,0c18.1-5.5,29.3-12,29.3-18.4c0-2.8-2.9-6-8-9.3c-6.2-4-15.2-7.5-26.2-10.5  C325,252.3,298.8,262.2,270.2,262.2L270.2,262.2z M193.7,216.5c42.2,42.2,110.7,42.2,152.9,0c42.2-42.2,42.2-110.6,0-152.8  c-42.2-42.2-110.7-42.2-152.9,0C151.5,105.9,151.5,174.3,193.7,216.5L193.7,216.5z"/><text x="0" y="515" fill="#000000" font-size="5px" font-weight="bold" font-family="'Helvetica Neue', Helvetica, Arial-Unicode, Arial, Sans-serif">Created by gingertea</text><text x="0" y="520" fill="#000000" font-size="5px" font-weight="bold" font-family="'Helvetica Neue', Helvetica, Arial-Unicode, Arial, Sans-serif">from the Noun Project</text></svg>