<svg xmlns="http://www.w3.org/2000/svg" xmlns:xlink="http://www.w3.org/1999/xlink" version="1.1" x="0px" y="0px" viewBox="0 0 96 100" style="enable-background:new 0 0 96 96;" xml:space="preserve"><style type="text/css">
	.st0{fill-rule:evenodd;clip-rule:evenodd;}
</style><path d="M87.937,11H74.6v-0.864c0-0.806-0.653-1.459-1.459-1.459h-7.383c-1.202-2.992-4.103-4.996-7.413-4.996  c-3.31,0-6.211,2.004-7.413,4.996h-7.383c-0.806,0-1.459,0.653-1.459,1.459V11H28.753c-2.924,0-5.302,2.379-5.302,5.302v5.943  L13.206,39.99H9.647c-3.797,0-6.886,3.089-6.886,6.886l0,0c0,0,0,0,0,0v38.556c0,3.797,3.089,6.886,6.886,6.886h56.298h21.992  c2.924,0,5.302-2.379,5.302-5.302V16.303C93.239,13.379,90.86,11,87.937,11z M45.008,11.596h6.986c0.674,0,1.261-0.462,1.419-1.117  C53.963,8.195,55.992,6.6,58.345,6.6c2.353,0,4.381,1.595,4.932,3.879c0.158,0.655,0.744,1.117,1.419,1.117h6.986v7.073H45.008  V11.596z M73.141,21.588c0.806,0,1.459-0.653,1.459-1.459v-0.864h10.374v64.788h-17.57v-7.106h12.272  c0.806,0,1.459-0.653,1.459-1.459c0-0.806-0.653-1.459-1.459-1.459H67.404v-4.804h12.272c0.806,0,1.459-0.653,1.459-1.459  c0-0.806-0.653-1.459-1.459-1.459H67.404v-4.804h12.272c0.806,0,1.459-0.653,1.459-1.459s-0.653-1.459-1.459-1.459H67.404v-4.804  h12.272c0.806,0,1.459-0.653,1.459-1.459s-0.653-1.459-1.459-1.459H66.151c-0.068-0.01-0.136-0.016-0.206-0.016H62.25v-4.788h17.426  c0.806,0,1.459-0.653,1.459-1.459s-0.653-1.459-1.459-1.459H62.25v-1.688c0-0.806-0.653-1.459-1.459-1.459h-6.079l0.169-0.293  c0.194-0.335,0.246-0.733,0.146-1.107c-0.024-0.089-0.057-0.175-0.096-0.257h24.745c0.806,0,1.459-0.653,1.459-1.459  s-0.653-1.459-1.459-1.459H50.382l-8.322-4.804h37.616c0.806,0,1.459-0.653,1.459-1.459s-0.653-1.459-1.459-1.459H37.014  c-0.003,0-0.005,0-0.008,0l-5.29-3.054v-5.371h10.374v0.864c0,0.806,0.653,1.459,1.459,1.459H73.141z M64.486,77.642H51.634  c-3.342,0-6.061-2.719-6.061-6.061c0-3.342,2.719-6.061,6.061-6.061h12.852V77.642z M43.382,50.337  c0.048,0.172,0.105,0.341,0.169,0.506H22.903l4.669-8.086c1.798,0.466,3.715-0.027,5.036-1.291l10.724,6.191  C43.118,48.527,43.132,49.444,43.382,50.337z M47.072,50.844c-0.426-0.329-0.734-0.777-0.88-1.295  c-0.173-0.616-0.095-1.255,0.219-1.798c0.193-0.335,0.246-0.733,0.146-1.107c-0.1-0.374-0.345-0.693-0.68-0.886l-12.893-7.444  c-0.698-0.403-1.591-0.164-1.993,0.534c-0.655,1.134-2.145,1.503-3.322,0.824c-0.698-0.403-1.59-0.164-1.993,0.534l-6.142,10.638  h-2.571l10.763-18.643l26.074,15.054l-2.072,3.589H47.072z M51.624,39.501l-1.354,2.346L27.921,28.944  c-0.698-0.403-1.59-0.164-1.993,0.534L13.592,50.844H10.31l15.24-26.397L51.624,39.501z M57.202,46.343  c-0.1-0.374-0.345-0.693-0.68-0.886l-3.725-2.151l0.23-0.398h6.304v7.935h-4.233l1.959-3.393  C57.25,47.115,57.303,46.717,57.202,46.343z M28.753,13.919h13.337v2.428H30.256c-0.806,0-1.459,0.653-1.459,1.459v5.146  l-2.428-1.402v-5.247C26.369,14.988,27.438,13.919,28.753,13.919z M5.68,46.876c0-2.188,1.78-3.968,3.968-3.968h1.874L7.36,50.115  C6.344,49.396,5.68,48.213,5.68,46.876C5.68,46.876,5.68,46.876,5.68,46.876L5.68,46.876z M9.647,89.4  c-2.188,0-3.968-1.78-3.968-3.968V52.502c1.122,0.794,2.491,1.261,3.968,1.261h54.838v8.84H51.634c-4.951,0-8.979,4.028-8.979,8.979  c0,4.951,4.028,8.979,8.979,8.979h12.852v8.84H9.647z M90.32,87.016c0,1.314-1.069,2.384-2.384,2.384H67.404v-2.428h19.029  c0.806,0,1.459-0.653,1.459-1.459V17.806c0-0.806-0.653-1.459-1.459-1.459H74.6v-2.428h13.337c1.314,0,2.384,1.069,2.384,2.384  V87.016z M60.073,10.497c0,0.952-0.776,1.728-1.728,1.728c-0.952,0-1.728-0.776-1.728-1.728c0-0.952,0.776-1.728,1.728-1.728  C59.297,8.769,60.073,9.545,60.073,10.497z M47.744,71.581c0,2.288,1.861,4.149,4.149,4.149s4.149-1.861,4.149-4.149  c0-2.288-1.861-4.149-4.149-4.149S47.744,69.293,47.744,71.581z M51.893,70.351c0.678,0,1.23,0.552,1.23,1.23  c0,0.678-0.552,1.23-1.23,1.23s-1.23-0.552-1.23-1.23C50.662,70.903,51.214,70.351,51.893,70.351z"/><text x="0" y="111" fill="#000000" font-size="5px" font-weight="bold" font-family="'Helvetica Neue', Helvetica, Arial-Unicode, Arial, Sans-serif">Created by Eko Purnomo</text><text x="0" y="116" fill="#000000" font-size="5px" font-weight="bold" font-family="'Helvetica Neue', Helvetica, Arial-Unicode, Arial, Sans-serif">from the Noun Project</text></svg>