<svg xmlns="http://www.w3.org/2000/svg" viewBox="0 0 48 70" x="0px" y="0px">
    <path fill="#000000" d="M452.168883,1444 L447.462707,1444 L439.691428,1423.46162 L457.394648,1419.61309 L452.168883,1444 Z M435.356566,1423.30808 L443.185942,1444 L434.005323,1444 C429.586846,1444 426,1440.41852 426,1436.0078 L426,1417.07037 L435.356566,1423.30808 Z M440.808955,1419.12525 L451.609294,1398.96462 L457.369475,1415.52514 L440.808955,1419.12525 Z M461.374878,1420.12911 L474,1427.55566 L474,1436.00644 C474,1440.42563 470.423657,1444 465.994677,1444 L456.259689,1444 L461.374878,1420.12911 Z M426,1412.26297 L426,1404.48858 L447.896093,1397.42532 L436.277,1419.1143 L426,1412.26297 Z M426,1400.28561 L426,1383.9922 C426,1379.57366 429.576445,1376 434.005323,1376 L443.113999,1376 L449.391488,1392.73997 L426,1400.28561 Z M447.386001,1376 L465.994677,1376 C470.411991,1376 474,1379.58523 474,1383.99356 L474,1385.7349 L453.227445,1391.57718 L447.386001,1376 Z M474,1389.8901 L474,1422.91493 L461.647539,1415.64878 L454.587087,1395.34998 L474,1389.8901 Z" transform="translate(-426 -1376)"/>
</svg>
